<svg xmlns="http://www.w3.org/2000/svg" xmlns:xlink="http://www.w3.org/1999/xlink" width="500" zoomAndPan="magnify" viewBox="0 0 375 374.999991" height="500" preserveAspectRatio="xMidYMid meet" version="1.0"><defs><g/><clipPath id="9daacf97cf"><path d="M 67.320312 176.472656 L 93.394531 176.472656 L 93.394531 202.546875 L 67.320312 202.546875 Z M 67.320312 176.472656 " clip-rule="nonzero"/></clipPath><clipPath id="97cc1f7fbb"><path d="M 80.355469 176.472656 C 73.15625 176.472656 67.320312 182.308594 67.320312 189.507812 C 67.320312 196.710938 73.15625 202.546875 80.355469 202.546875 C 87.558594 202.546875 93.394531 196.710938 93.394531 189.507812 C 93.394531 182.308594 87.558594 176.472656 80.355469 176.472656 Z M 80.355469 176.472656 " clip-rule="nonzero"/></clipPath><linearGradient x1="-0.0000236105" gradientTransform="matrix(0.10186, 0, 0, 0.10186, 67.319057, 176.471356)" y1="128" x2="255.999976" gradientUnits="userSpaceOnUse" y2="128" id="5121fe5a37"><stop stop-opacity="1" stop-color="rgb(36.499023%, 87.799072%, 90.19928%)" offset="0"/><stop stop-opacity="1" stop-color="rgb(36.355591%, 87.568665%, 90.110779%)" offset="0.00390625"/><stop stop-opacity="1" stop-color="rgb(36.213684%, 87.339783%, 90.023804%)" offset="0.0078125"/><stop stop-opacity="1" stop-color="rgb(36.070251%, 87.109375%, 89.936829%)" offset="0.0117188"/><stop stop-opacity="1" stop-color="rgb(35.928345%, 86.880493%, 89.849854%)" offset="0.015625"/><stop stop-opacity="1" stop-color="rgb(35.786438%, 86.650085%, 89.761353%)" offset="0.0195312"/><stop stop-opacity="1" stop-color="rgb(35.644531%, 86.421204%, 89.674377%)" offset="0.0234375"/><stop stop-opacity="1" stop-color="rgb(35.501099%, 86.190796%, 89.585876%)" offset="0.0273438"/><stop stop-opacity="1" stop-color="rgb(35.359192%, 85.961914%, 89.498901%)" offset="0.03125"/><stop stop-opacity="1" stop-color="rgb(35.215759%, 85.731506%, 89.411926%)" offset="0.0351562"/><stop stop-opacity="1" stop-color="rgb(35.073853%, 85.502625%, 89.324951%)" offset="0.0390625"/><stop stop-opacity="1" stop-color="rgb(34.93042%, 85.272217%, 89.23645%)" offset="0.0429688"/><stop stop-opacity="1" stop-color="rgb(34.788513%, 85.043335%, 89.149475%)" offset="0.046875"/><stop stop-opacity="1" stop-color="rgb(34.645081%, 84.812927%, 89.060974%)" offset="0.0507812"/><stop stop-opacity="1" stop-color="rgb(34.503174%, 84.584045%, 88.973999%)" offset="0.0546875"/><stop stop-opacity="1" stop-color="rgb(34.359741%, 84.353638%, 88.885498%)" offset="0.0585938"/><stop stop-opacity="1" stop-color="rgb(34.217834%, 84.124756%, 88.798523%)" offset="0.0625"/><stop stop-opacity="1" stop-color="rgb(34.074402%, 83.894348%, 88.711548%)" offset="0.0664062"/><stop stop-opacity="1" stop-color="rgb(33.932495%, 83.665466%, 88.624573%)" offset="0.0703125"/><stop stop-opacity="1" stop-color="rgb(33.789062%, 83.435059%, 88.536072%)" offset="0.0742188"/><stop stop-opacity="1" stop-color="rgb(33.647156%, 83.206177%, 88.449097%)" offset="0.078125"/><stop stop-opacity="1" stop-color="rgb(33.503723%, 82.975769%, 88.360596%)" offset="0.0820312"/><stop stop-opacity="1" stop-color="rgb(33.361816%, 82.745361%, 88.273621%)" offset="0.0859375"/><stop stop-opacity="1" stop-color="rgb(33.21991%, 82.514954%, 88.186646%)" offset="0.0898438"/><stop stop-opacity="1" stop-color="rgb(33.078003%, 82.286072%, 88.09967%)" offset="0.09375"/><stop stop-opacity="1" stop-color="rgb(32.93457%, 82.055664%, 88.011169%)" offset="0.0976562"/><stop stop-opacity="1" stop-color="rgb(32.792664%, 81.826782%, 87.924194%)" offset="0.101562"/><stop stop-opacity="1" stop-color="rgb(32.649231%, 81.596375%, 87.835693%)" offset="0.105469"/><stop stop-opacity="1" stop-color="rgb(32.507324%, 81.367493%, 87.748718%)" offset="0.109375"/><stop stop-opacity="1" stop-color="rgb(32.363892%, 81.137085%, 87.661743%)" offset="0.113281"/><stop stop-opacity="1" stop-color="rgb(32.221985%, 80.908203%, 87.574768%)" offset="0.117188"/><stop stop-opacity="1" stop-color="rgb(32.078552%, 80.677795%, 87.486267%)" offset="0.121094"/><stop stop-opacity="1" stop-color="rgb(31.936646%, 80.448914%, 87.399292%)" offset="0.125"/><stop stop-opacity="1" stop-color="rgb(31.793213%, 80.218506%, 87.310791%)" offset="0.128906"/><stop stop-opacity="1" stop-color="rgb(31.651306%, 79.989624%, 87.223816%)" offset="0.132812"/><stop stop-opacity="1" stop-color="rgb(31.507874%, 79.759216%, 87.136841%)" offset="0.136719"/><stop stop-opacity="1" stop-color="rgb(31.365967%, 79.530334%, 87.049866%)" offset="0.140625"/><stop stop-opacity="1" stop-color="rgb(31.222534%, 79.299927%, 86.961365%)" offset="0.144531"/><stop stop-opacity="1" stop-color="rgb(31.080627%, 79.071045%, 86.87439%)" offset="0.148438"/><stop stop-opacity="1" stop-color="rgb(30.938721%, 78.840637%, 86.785889%)" offset="0.152344"/><stop stop-opacity="1" stop-color="rgb(30.796814%, 78.611755%, 86.698914%)" offset="0.15625"/><stop stop-opacity="1" stop-color="rgb(30.653381%, 78.381348%, 86.611938%)" offset="0.160156"/><stop stop-opacity="1" stop-color="rgb(30.511475%, 78.152466%, 86.524963%)" offset="0.164062"/><stop stop-opacity="1" stop-color="rgb(30.368042%, 77.922058%, 86.436462%)" offset="0.167969"/><stop stop-opacity="1" stop-color="rgb(30.226135%, 77.693176%, 86.349487%)" offset="0.171875"/><stop stop-opacity="1" stop-color="rgb(30.082703%, 77.462769%, 86.260986%)" offset="0.175781"/><stop stop-opacity="1" stop-color="rgb(29.940796%, 77.233887%, 86.174011%)" offset="0.179688"/><stop stop-opacity="1" stop-color="rgb(29.797363%, 77.003479%, 86.08551%)" offset="0.183594"/><stop stop-opacity="1" stop-color="rgb(29.655457%, 76.774597%, 85.998535%)" offset="0.1875"/><stop stop-opacity="1" stop-color="rgb(29.512024%, 76.544189%, 85.91156%)" offset="0.191406"/><stop stop-opacity="1" stop-color="rgb(29.370117%, 76.315308%, 85.824585%)" offset="0.195312"/><stop stop-opacity="1" stop-color="rgb(29.226685%, 76.0849%, 85.736084%)" offset="0.199219"/><stop stop-opacity="1" stop-color="rgb(29.084778%, 75.856018%, 85.649109%)" offset="0.203125"/><stop stop-opacity="1" stop-color="rgb(28.941345%, 75.62561%, 85.560608%)" offset="0.207031"/><stop stop-opacity="1" stop-color="rgb(28.799438%, 75.396729%, 85.473633%)" offset="0.210938"/><stop stop-opacity="1" stop-color="rgb(28.657532%, 75.166321%, 85.386658%)" offset="0.214844"/><stop stop-opacity="1" stop-color="rgb(28.515625%, 74.937439%, 85.299683%)" offset="0.21875"/><stop stop-opacity="1" stop-color="rgb(28.372192%, 74.707031%, 85.211182%)" offset="0.222656"/><stop stop-opacity="1" stop-color="rgb(28.230286%, 74.476624%, 85.124207%)" offset="0.226562"/><stop stop-opacity="1" stop-color="rgb(28.086853%, 74.246216%, 85.035706%)" offset="0.230469"/><stop stop-opacity="1" stop-color="rgb(27.944946%, 74.017334%, 84.94873%)" offset="0.234375"/><stop stop-opacity="1" stop-color="rgb(27.801514%, 73.786926%, 84.861755%)" offset="0.238281"/><stop stop-opacity="1" stop-color="rgb(27.659607%, 73.558044%, 84.77478%)" offset="0.242188"/><stop stop-opacity="1" stop-color="rgb(27.516174%, 73.327637%, 84.686279%)" offset="0.246094"/><stop stop-opacity="1" stop-color="rgb(27.374268%, 73.098755%, 84.599304%)" offset="0.25"/><stop stop-opacity="1" stop-color="rgb(27.230835%, 72.868347%, 84.510803%)" offset="0.253906"/><stop stop-opacity="1" stop-color="rgb(27.088928%, 72.639465%, 84.423828%)" offset="0.257812"/><stop stop-opacity="1" stop-color="rgb(26.945496%, 72.409058%, 84.336853%)" offset="0.261719"/><stop stop-opacity="1" stop-color="rgb(26.803589%, 72.180176%, 84.249878%)" offset="0.265625"/><stop stop-opacity="1" stop-color="rgb(26.660156%, 71.949768%, 84.161377%)" offset="0.269531"/><stop stop-opacity="1" stop-color="rgb(26.51825%, 71.720886%, 84.074402%)" offset="0.273438"/><stop stop-opacity="1" stop-color="rgb(26.374817%, 71.490479%, 83.985901%)" offset="0.277344"/><stop stop-opacity="1" stop-color="rgb(26.23291%, 71.261597%, 83.898926%)" offset="0.28125"/><stop stop-opacity="1" stop-color="rgb(26.091003%, 71.031189%, 83.811951%)" offset="0.285156"/><stop stop-opacity="1" stop-color="rgb(25.949097%, 70.802307%, 83.724976%)" offset="0.289062"/><stop stop-opacity="1" stop-color="rgb(25.805664%, 70.571899%, 83.636475%)" offset="0.292969"/><stop stop-opacity="1" stop-color="rgb(25.663757%, 70.343018%, 83.5495%)" offset="0.296875"/><stop stop-opacity="1" stop-color="rgb(25.520325%, 70.11261%, 83.460999%)" offset="0.300781"/><stop stop-opacity="1" stop-color="rgb(25.378418%, 69.883728%, 83.374023%)" offset="0.304688"/><stop stop-opacity="1" stop-color="rgb(25.234985%, 69.65332%, 83.285522%)" offset="0.308594"/><stop stop-opacity="1" stop-color="rgb(25.093079%, 69.424438%, 83.198547%)" offset="0.3125"/><stop stop-opacity="1" stop-color="rgb(24.949646%, 69.194031%, 83.111572%)" offset="0.316406"/><stop stop-opacity="1" stop-color="rgb(24.807739%, 68.965149%, 83.024597%)" offset="0.320312"/><stop stop-opacity="1" stop-color="rgb(24.664307%, 68.734741%, 82.936096%)" offset="0.324219"/><stop stop-opacity="1" stop-color="rgb(24.5224%, 68.505859%, 82.849121%)" offset="0.328125"/><stop stop-opacity="1" stop-color="rgb(24.378967%, 68.275452%, 82.76062%)" offset="0.332031"/><stop stop-opacity="1" stop-color="rgb(24.237061%, 68.04657%, 82.673645%)" offset="0.335938"/><stop stop-opacity="1" stop-color="rgb(24.093628%, 67.816162%, 82.58667%)" offset="0.339844"/><stop stop-opacity="1" stop-color="rgb(23.951721%, 67.58728%, 82.499695%)" offset="0.34375"/><stop stop-opacity="1" stop-color="rgb(23.809814%, 67.356873%, 82.411194%)" offset="0.347656"/><stop stop-opacity="1" stop-color="rgb(23.667908%, 67.127991%, 82.324219%)" offset="0.351562"/><stop stop-opacity="1" stop-color="rgb(23.524475%, 66.897583%, 82.235718%)" offset="0.355469"/><stop stop-opacity="1" stop-color="rgb(23.382568%, 66.668701%, 82.148743%)" offset="0.359375"/><stop stop-opacity="1" stop-color="rgb(23.239136%, 66.438293%, 82.061768%)" offset="0.363281"/><stop stop-opacity="1" stop-color="rgb(23.097229%, 66.207886%, 81.974792%)" offset="0.367188"/><stop stop-opacity="1" stop-color="rgb(22.953796%, 65.977478%, 81.886292%)" offset="0.371094"/><stop stop-opacity="1" stop-color="rgb(22.81189%, 65.748596%, 81.799316%)" offset="0.375"/><stop stop-opacity="1" stop-color="rgb(22.668457%, 65.518188%, 81.710815%)" offset="0.378906"/><stop stop-opacity="1" stop-color="rgb(22.52655%, 65.289307%, 81.62384%)" offset="0.382812"/><stop stop-opacity="1" stop-color="rgb(22.383118%, 65.058899%, 81.536865%)" offset="0.386719"/><stop stop-opacity="1" stop-color="rgb(22.241211%, 64.830017%, 81.44989%)" offset="0.390625"/><stop stop-opacity="1" stop-color="rgb(22.097778%, 64.599609%, 81.361389%)" offset="0.394531"/><stop stop-opacity="1" stop-color="rgb(21.955872%, 64.370728%, 81.274414%)" offset="0.398438"/><stop stop-opacity="1" stop-color="rgb(21.812439%, 64.14032%, 81.185913%)" offset="0.402344"/><stop stop-opacity="1" stop-color="rgb(21.670532%, 63.911438%, 81.098938%)" offset="0.40625"/><stop stop-opacity="1" stop-color="rgb(21.528625%, 63.68103%, 81.011963%)" offset="0.410156"/><stop stop-opacity="1" stop-color="rgb(21.386719%, 63.452148%, 80.924988%)" offset="0.414062"/><stop stop-opacity="1" stop-color="rgb(21.243286%, 63.221741%, 80.836487%)" offset="0.417969"/><stop stop-opacity="1" stop-color="rgb(21.101379%, 62.992859%, 80.749512%)" offset="0.421875"/><stop stop-opacity="1" stop-color="rgb(20.957947%, 62.762451%, 80.661011%)" offset="0.425781"/><stop stop-opacity="1" stop-color="rgb(20.81604%, 62.533569%, 80.574036%)" offset="0.429688"/><stop stop-opacity="1" stop-color="rgb(20.672607%, 62.303162%, 80.485535%)" offset="0.433594"/><stop stop-opacity="1" stop-color="rgb(20.530701%, 62.07428%, 80.39856%)" offset="0.4375"/><stop stop-opacity="1" stop-color="rgb(20.387268%, 61.843872%, 80.311584%)" offset="0.441406"/><stop stop-opacity="1" stop-color="rgb(20.245361%, 61.61499%, 80.224609%)" offset="0.445312"/><stop stop-opacity="1" stop-color="rgb(20.101929%, 61.384583%, 80.136108%)" offset="0.449219"/><stop stop-opacity="1" stop-color="rgb(19.960022%, 61.155701%, 80.049133%)" offset="0.453125"/><stop stop-opacity="1" stop-color="rgb(19.816589%, 60.925293%, 79.960632%)" offset="0.457031"/><stop stop-opacity="1" stop-color="rgb(19.674683%, 60.696411%, 79.873657%)" offset="0.460938"/><stop stop-opacity="1" stop-color="rgb(19.53125%, 60.466003%, 79.786682%)" offset="0.464844"/><stop stop-opacity="1" stop-color="rgb(19.389343%, 60.237122%, 79.699707%)" offset="0.46875"/><stop stop-opacity="1" stop-color="rgb(19.245911%, 60.006714%, 79.611206%)" offset="0.472656"/><stop stop-opacity="1" stop-color="rgb(19.104004%, 59.777832%, 79.524231%)" offset="0.476562"/><stop stop-opacity="1" stop-color="rgb(18.962097%, 59.547424%, 79.43573%)" offset="0.480469"/><stop stop-opacity="1" stop-color="rgb(18.82019%, 59.318542%, 79.348755%)" offset="0.484375"/><stop stop-opacity="1" stop-color="rgb(18.676758%, 59.088135%, 79.26178%)" offset="0.488281"/><stop stop-opacity="1" stop-color="rgb(18.534851%, 58.859253%, 79.174805%)" offset="0.492188"/><stop stop-opacity="1" stop-color="rgb(18.391418%, 58.628845%, 79.086304%)" offset="0.496094"/><stop stop-opacity="1" stop-color="rgb(18.249512%, 58.399963%, 78.999329%)" offset="0.5"/><stop stop-opacity="1" stop-color="rgb(18.106079%, 58.169556%, 78.910828%)" offset="0.503906"/><stop stop-opacity="1" stop-color="rgb(17.964172%, 57.939148%, 78.823853%)" offset="0.507812"/><stop stop-opacity="1" stop-color="rgb(17.82074%, 57.70874%, 78.736877%)" offset="0.511719"/><stop stop-opacity="1" stop-color="rgb(17.678833%, 57.479858%, 78.649902%)" offset="0.515625"/><stop stop-opacity="1" stop-color="rgb(17.5354%, 57.249451%, 78.561401%)" offset="0.519531"/><stop stop-opacity="1" stop-color="rgb(17.393494%, 57.020569%, 78.474426%)" offset="0.523437"/><stop stop-opacity="1" stop-color="rgb(17.250061%, 56.790161%, 78.385925%)" offset="0.527344"/><stop stop-opacity="1" stop-color="rgb(17.108154%, 56.561279%, 78.29895%)" offset="0.53125"/><stop stop-opacity="1" stop-color="rgb(16.964722%, 56.330872%, 78.211975%)" offset="0.535156"/><stop stop-opacity="1" stop-color="rgb(16.822815%, 56.10199%, 78.125%)" offset="0.539062"/><stop stop-opacity="1" stop-color="rgb(16.680908%, 55.871582%, 78.036499%)" offset="0.542969"/><stop stop-opacity="1" stop-color="rgb(16.539001%, 55.6427%, 77.949524%)" offset="0.546875"/><stop stop-opacity="1" stop-color="rgb(16.395569%, 55.412292%, 77.861023%)" offset="0.550781"/><stop stop-opacity="1" stop-color="rgb(16.253662%, 55.183411%, 77.774048%)" offset="0.554688"/><stop stop-opacity="1" stop-color="rgb(16.110229%, 54.953003%, 77.685547%)" offset="0.558594"/><stop stop-opacity="1" stop-color="rgb(15.968323%, 54.724121%, 77.598572%)" offset="0.5625"/><stop stop-opacity="1" stop-color="rgb(15.82489%, 54.493713%, 77.511597%)" offset="0.566406"/><stop stop-opacity="1" stop-color="rgb(15.682983%, 54.264832%, 77.424622%)" offset="0.570312"/><stop stop-opacity="1" stop-color="rgb(15.539551%, 54.034424%, 77.336121%)" offset="0.574219"/><stop stop-opacity="1" stop-color="rgb(15.397644%, 53.805542%, 77.249146%)" offset="0.578125"/><stop stop-opacity="1" stop-color="rgb(15.254211%, 53.575134%, 77.160645%)" offset="0.582031"/><stop stop-opacity="1" stop-color="rgb(15.112305%, 53.346252%, 77.073669%)" offset="0.585938"/><stop stop-opacity="1" stop-color="rgb(14.968872%, 53.115845%, 76.986694%)" offset="0.589844"/><stop stop-opacity="1" stop-color="rgb(14.826965%, 52.886963%, 76.899719%)" offset="0.59375"/><stop stop-opacity="1" stop-color="rgb(14.683533%, 52.656555%, 76.811218%)" offset="0.597656"/><stop stop-opacity="1" stop-color="rgb(14.541626%, 52.427673%, 76.724243%)" offset="0.601562"/><stop stop-opacity="1" stop-color="rgb(14.399719%, 52.197266%, 76.635742%)" offset="0.605469"/><stop stop-opacity="1" stop-color="rgb(14.257812%, 51.968384%, 76.548767%)" offset="0.609375"/><stop stop-opacity="1" stop-color="rgb(14.11438%, 51.737976%, 76.461792%)" offset="0.613281"/><stop stop-opacity="1" stop-color="rgb(13.972473%, 51.509094%, 76.374817%)" offset="0.617187"/><stop stop-opacity="1" stop-color="rgb(13.829041%, 51.278687%, 76.286316%)" offset="0.621094"/><stop stop-opacity="1" stop-color="rgb(13.687134%, 51.049805%, 76.199341%)" offset="0.625"/><stop stop-opacity="1" stop-color="rgb(13.543701%, 50.819397%, 76.11084%)" offset="0.628906"/><stop stop-opacity="1" stop-color="rgb(13.401794%, 50.590515%, 76.023865%)" offset="0.632813"/><stop stop-opacity="1" stop-color="rgb(13.258362%, 50.360107%, 75.93689%)" offset="0.636719"/><stop stop-opacity="1" stop-color="rgb(13.116455%, 50.131226%, 75.849915%)" offset="0.640625"/><stop stop-opacity="1" stop-color="rgb(12.973022%, 49.900818%, 75.761414%)" offset="0.644531"/><stop stop-opacity="1" stop-color="rgb(12.831116%, 49.67041%, 75.674438%)" offset="0.648438"/><stop stop-opacity="1" stop-color="rgb(12.687683%, 49.440002%, 75.585938%)" offset="0.652344"/><stop stop-opacity="1" stop-color="rgb(12.545776%, 49.211121%, 75.498962%)" offset="0.65625"/><stop stop-opacity="1" stop-color="rgb(12.402344%, 48.980713%, 75.410461%)" offset="0.660156"/><stop stop-opacity="1" stop-color="rgb(12.260437%, 48.751831%, 75.323486%)" offset="0.664062"/><stop stop-opacity="1" stop-color="rgb(12.117004%, 48.521423%, 75.236511%)" offset="0.667969"/><stop stop-opacity="1" stop-color="rgb(11.975098%, 48.292542%, 75.149536%)" offset="0.671875"/><stop stop-opacity="1" stop-color="rgb(11.833191%, 48.062134%, 75.061035%)" offset="0.675781"/><stop stop-opacity="1" stop-color="rgb(11.691284%, 47.833252%, 74.97406%)" offset="0.679688"/><stop stop-opacity="1" stop-color="rgb(11.547852%, 47.602844%, 74.885559%)" offset="0.683594"/><stop stop-opacity="1" stop-color="rgb(11.405945%, 47.373962%, 74.798584%)" offset="0.6875"/><stop stop-opacity="1" stop-color="rgb(11.262512%, 47.143555%, 74.711609%)" offset="0.691406"/><stop stop-opacity="1" stop-color="rgb(11.120605%, 46.914673%, 74.624634%)" offset="0.695312"/><stop stop-opacity="1" stop-color="rgb(10.977173%, 46.684265%, 74.536133%)" offset="0.699219"/><stop stop-opacity="1" stop-color="rgb(10.835266%, 46.455383%, 74.449158%)" offset="0.703125"/><stop stop-opacity="1" stop-color="rgb(10.691833%, 46.224976%, 74.360657%)" offset="0.707031"/><stop stop-opacity="1" stop-color="rgb(10.549927%, 45.996094%, 74.273682%)" offset="0.710938"/><stop stop-opacity="1" stop-color="rgb(10.406494%, 45.765686%, 74.186707%)" offset="0.714844"/><stop stop-opacity="1" stop-color="rgb(10.264587%, 45.536804%, 74.099731%)" offset="0.71875"/><stop stop-opacity="1" stop-color="rgb(10.121155%, 45.306396%, 74.01123%)" offset="0.722656"/><stop stop-opacity="1" stop-color="rgb(9.979248%, 45.077515%, 73.924255%)" offset="0.726563"/><stop stop-opacity="1" stop-color="rgb(9.835815%, 44.847107%, 73.835754%)" offset="0.730469"/><stop stop-opacity="1" stop-color="rgb(9.693909%, 44.618225%, 73.748779%)" offset="0.734375"/><stop stop-opacity="1" stop-color="rgb(9.552002%, 44.387817%, 73.661804%)" offset="0.738281"/><stop stop-opacity="1" stop-color="rgb(9.410095%, 44.158936%, 73.574829%)" offset="0.742188"/><stop stop-opacity="1" stop-color="rgb(9.266663%, 43.928528%, 73.486328%)" offset="0.746094"/><stop stop-opacity="1" stop-color="rgb(9.124756%, 43.699646%, 73.399353%)" offset="0.75"/><stop stop-opacity="1" stop-color="rgb(8.981323%, 43.469238%, 73.310852%)" offset="0.753906"/><stop stop-opacity="1" stop-color="rgb(8.839417%, 43.240356%, 73.223877%)" offset="0.757812"/><stop stop-opacity="1" stop-color="rgb(8.695984%, 43.009949%, 73.136902%)" offset="0.761719"/><stop stop-opacity="1" stop-color="rgb(8.554077%, 42.781067%, 73.049927%)" offset="0.765625"/><stop stop-opacity="1" stop-color="rgb(8.410645%, 42.550659%, 72.961426%)" offset="0.769531"/><stop stop-opacity="1" stop-color="rgb(8.268738%, 42.321777%, 72.874451%)" offset="0.773437"/><stop stop-opacity="1" stop-color="rgb(8.125305%, 42.09137%, 72.78595%)" offset="0.777344"/><stop stop-opacity="1" stop-color="rgb(7.983398%, 41.862488%, 72.698975%)" offset="0.78125"/><stop stop-opacity="1" stop-color="rgb(7.839966%, 41.63208%, 72.610474%)" offset="0.785156"/><stop stop-opacity="1" stop-color="rgb(7.698059%, 41.401672%, 72.523499%)" offset="0.789062"/><stop stop-opacity="1" stop-color="rgb(7.554626%, 41.171265%, 72.436523%)" offset="0.792969"/><stop stop-opacity="1" stop-color="rgb(7.41272%, 40.942383%, 72.349548%)" offset="0.796875"/><stop stop-opacity="1" stop-color="rgb(7.270813%, 40.711975%, 72.261047%)" offset="0.800781"/><stop stop-opacity="1" stop-color="rgb(7.128906%, 40.483093%, 72.174072%)" offset="0.804688"/><stop stop-opacity="1" stop-color="rgb(6.985474%, 40.252686%, 72.085571%)" offset="0.808594"/><stop stop-opacity="1" stop-color="rgb(6.843567%, 40.023804%, 71.998596%)" offset="0.8125"/><stop stop-opacity="1" stop-color="rgb(6.700134%, 39.793396%, 71.911621%)" offset="0.816406"/><stop stop-opacity="1" stop-color="rgb(6.558228%, 39.564514%, 71.824646%)" offset="0.820312"/><stop stop-opacity="1" stop-color="rgb(6.414795%, 39.334106%, 71.736145%)" offset="0.824219"/><stop stop-opacity="1" stop-color="rgb(6.272888%, 39.105225%, 71.64917%)" offset="0.828125"/><stop stop-opacity="1" stop-color="rgb(6.129456%, 38.874817%, 71.560669%)" offset="0.832031"/><stop stop-opacity="1" stop-color="rgb(5.987549%, 38.645935%, 71.473694%)" offset="0.835938"/><stop stop-opacity="1" stop-color="rgb(5.844116%, 38.415527%, 71.386719%)" offset="0.839844"/><stop stop-opacity="1" stop-color="rgb(5.702209%, 38.186646%, 71.299744%)" offset="0.84375"/><stop stop-opacity="1" stop-color="rgb(5.558777%, 37.956238%, 71.211243%)" offset="0.847656"/><stop stop-opacity="1" stop-color="rgb(5.41687%, 37.727356%, 71.124268%)" offset="0.851562"/><stop stop-opacity="1" stop-color="rgb(5.273438%, 37.496948%, 71.035767%)" offset="0.855469"/><stop stop-opacity="1" stop-color="rgb(5.131531%, 37.268066%, 70.948792%)" offset="0.859375"/><stop stop-opacity="1" stop-color="rgb(4.988098%, 37.037659%, 70.861816%)" offset="0.863281"/><stop stop-opacity="1" stop-color="rgb(4.846191%, 36.808777%, 70.774841%)" offset="0.867187"/><stop stop-opacity="1" stop-color="rgb(4.704285%, 36.578369%, 70.68634%)" offset="0.871094"/><stop stop-opacity="1" stop-color="rgb(4.562378%, 36.349487%, 70.599365%)" offset="0.875"/><stop stop-opacity="1" stop-color="rgb(4.418945%, 36.11908%, 70.510864%)" offset="0.878906"/><stop stop-opacity="1" stop-color="rgb(4.277039%, 35.890198%, 70.423889%)" offset="0.882813"/><stop stop-opacity="1" stop-color="rgb(4.133606%, 35.65979%, 70.336914%)" offset="0.886719"/><stop stop-opacity="1" stop-color="rgb(3.991699%, 35.430908%, 70.249939%)" offset="0.890625"/><stop stop-opacity="1" stop-color="rgb(3.848267%, 35.2005%, 70.161438%)" offset="0.894531"/><stop stop-opacity="1" stop-color="rgb(3.70636%, 34.971619%, 70.074463%)" offset="0.898438"/><stop stop-opacity="1" stop-color="rgb(3.562927%, 34.741211%, 69.985962%)" offset="0.902344"/><stop stop-opacity="1" stop-color="rgb(3.421021%, 34.512329%, 69.898987%)" offset="0.90625"/><stop stop-opacity="1" stop-color="rgb(3.277588%, 34.281921%, 69.810486%)" offset="0.910156"/><stop stop-opacity="1" stop-color="rgb(3.135681%, 34.05304%, 69.723511%)" offset="0.914062"/><stop stop-opacity="1" stop-color="rgb(2.992249%, 33.822632%, 69.636536%)" offset="0.917969"/><stop stop-opacity="1" stop-color="rgb(2.850342%, 33.59375%, 69.549561%)" offset="0.921875"/><stop stop-opacity="1" stop-color="rgb(2.706909%, 33.363342%, 69.46106%)" offset="0.925781"/><stop stop-opacity="1" stop-color="rgb(2.565002%, 33.132935%, 69.374084%)" offset="0.929688"/><stop stop-opacity="1" stop-color="rgb(2.423096%, 32.902527%, 69.285583%)" offset="0.933594"/><stop stop-opacity="1" stop-color="rgb(2.281189%, 32.673645%, 69.198608%)" offset="0.9375"/><stop stop-opacity="1" stop-color="rgb(2.137756%, 32.443237%, 69.111633%)" offset="0.941406"/><stop stop-opacity="1" stop-color="rgb(1.99585%, 32.214355%, 69.024658%)" offset="0.945312"/><stop stop-opacity="1" stop-color="rgb(1.852417%, 31.983948%, 68.936157%)" offset="0.949219"/><stop stop-opacity="1" stop-color="rgb(1.71051%, 31.755066%, 68.849182%)" offset="0.953125"/><stop stop-opacity="1" stop-color="rgb(1.567078%, 31.524658%, 68.760681%)" offset="0.957031"/><stop stop-opacity="1" stop-color="rgb(1.425171%, 31.295776%, 68.673706%)" offset="0.960938"/><stop stop-opacity="1" stop-color="rgb(1.281738%, 31.065369%, 68.586731%)" offset="0.964844"/><stop stop-opacity="1" stop-color="rgb(1.139832%, 30.836487%, 68.499756%)" offset="0.96875"/><stop stop-opacity="1" stop-color="rgb(0.996399%, 30.606079%, 68.411255%)" offset="0.972656"/><stop stop-opacity="1" stop-color="rgb(0.854492%, 30.377197%, 68.32428%)" offset="0.976563"/><stop stop-opacity="1" stop-color="rgb(0.71106%, 30.14679%, 68.235779%)" offset="0.980469"/><stop stop-opacity="1" stop-color="rgb(0.569153%, 29.917908%, 68.148804%)" offset="0.984375"/><stop stop-opacity="1" stop-color="rgb(0.42572%, 29.6875%, 68.061829%)" offset="0.988281"/><stop stop-opacity="1" stop-color="rgb(0.283813%, 29.458618%, 67.974854%)" offset="0.992188"/><stop stop-opacity="1" stop-color="rgb(0.141907%, 29.22821%, 67.886353%)" offset="0.996094"/><stop stop-opacity="1" stop-color="rgb(0%, 28.999329%, 67.799377%)" offset="1"/></linearGradient><clipPath id="12afb129af"><path d="M 72.550781 186 L 76 186 L 76 193 L 72.550781 193 Z M 72.550781 186 " clip-rule="nonzero"/></clipPath><clipPath id="40c880e7ed"><path d="M 85 186 L 88.085938 186 L 88.085938 193 L 85 193 Z M 85 186 " clip-rule="nonzero"/></clipPath><clipPath id="75985a9468"><path d="M 78 182 L 82.785156 182 L 82.785156 186 L 78 186 Z M 78 182 " clip-rule="nonzero"/></clipPath></defs><rect x="-37.5" width="450" fill="#ffffff" y="-37.499999" height="449.999989" fill-opacity="1"/><g clip-path="url(#9daacf97cf)"><g clip-path="url(#97cc1f7fbb)"><path fill="url(#5121fe5a37)" d="M 67.320312 176.472656 L 67.320312 202.546875 L 93.394531 202.546875 L 93.394531 176.472656 Z M 67.320312 176.472656 " fill-rule="nonzero"/></g></g><path stroke-linecap="round" transform="matrix(0.485491, 0, 0, 0.485491, 72.552026, 181.704334)" fill="none" stroke-linejoin="round" d="M 6.997436 23.99866 C 5.903183 23.99866 5.002034 23.09751 5.002034 22.003258 L 5.002034 9.99866 C 5.002034 8.896361 5.903183 8.003258 6.997436 8.003258 C 8.099735 8.003258 9.000884 8.896361 9.000884 9.99866 L 9.000884 22.003258 C 9.000884 23.09751 8.099735 23.99866 6.997436 23.99866 Z M 6.997436 23.99866 " stroke="#ffffff" stroke-width="2" stroke-opacity="1" stroke-miterlimit="10"/><g clip-path="url(#12afb129af)"><path stroke-linecap="round" transform="matrix(0.485491, 0, 0, 0.485491, 72.552026, 181.704334)" fill="none" stroke-linejoin="round" d="M 2.998585 20.99751 C 1.896286 20.99751 1.003183 20.096361 1.003183 19.002108 L 1.003183 12.999809 C 1.003183 11.89751 1.896286 10.996361 2.998585 10.996361 C 4.100884 10.996361 5.002034 11.89751 5.002034 12.999809 L 5.002034 19.002108 C 5.002034 20.096361 4.100884 20.99751 2.998585 20.99751 Z M 2.998585 20.99751 " stroke="#ffffff" stroke-width="2" stroke-opacity="1" stroke-miterlimit="10"/></g><path stroke-linecap="round" transform="matrix(0.485491, 0, 0, 0.485491, 72.552026, 181.704334)" fill="none" stroke-linejoin="round" d="M 24.996286 8.003258 C 26.098585 8.003258 26.999735 8.896361 26.999735 9.99866 L 26.999735 22.003258 C 26.999735 23.09751 26.098585 23.99866 24.996286 23.99866 C 23.902033 23.99866 23.000884 23.09751 23.000884 22.003258 L 23.000884 9.99866 C 23.000884 8.896361 23.902033 8.003258 24.996286 8.003258 Z M 24.996286 8.003258 " stroke="#ffffff" stroke-width="2" stroke-opacity="1" stroke-miterlimit="10"/><g clip-path="url(#40c880e7ed)"><path stroke-linecap="round" transform="matrix(0.485491, 0, 0, 0.485491, 72.552026, 181.704334)" fill="none" stroke-linejoin="round" d="M 29.003183 10.996361 C 30.097436 10.996361 30.998585 11.89751 30.998585 12.999809 L 30.998585 19.002108 C 30.998585 20.096361 30.097436 20.99751 29.003183 20.99751 C 27.900884 20.99751 26.999735 20.096361 26.999735 19.002108 L 26.999735 12.999809 C 26.999735 11.89751 27.900884 10.996361 29.003183 10.996361 Z M 29.003183 10.996361 " stroke="#ffffff" stroke-width="2" stroke-opacity="1" stroke-miterlimit="10"/></g><path stroke-linecap="round" transform="matrix(0.485491, 0, 0, 0.485491, 72.552026, 181.704334)" fill="none" stroke-linejoin="round" d="M 9.000884 16.000959 L 23.000884 16.000959 " stroke="#ffffff" stroke-width="2" stroke-opacity="1" stroke-miterlimit="10"/><g clip-path="url(#75985a9468)"><path stroke-linecap="round" transform="matrix(0.200893, 0, 0, 0.200893, 77.962396, 181.704334)" fill="none" stroke-linejoin="round" d="M 12.009405 6.002317 C 10.201072 3.902317 7.187183 3.26065 4.931628 5.166206 C 2.676072 7.091205 2.364961 10.299539 4.134406 12.574539 C 5.612183 14.46065 10.064961 18.446761 11.523294 19.730094 C 11.67885 19.885649 11.776072 19.943983 11.873294 19.982872 C 11.951072 20.002316 12.048294 20.002316 12.126072 19.982872 C 12.223294 19.943983 12.301072 19.885649 12.456627 19.730094 C 13.914961 18.446761 18.387183 14.46065 19.845516 12.574539 C 21.61496 10.299539 21.342738 7.071761 19.048294 5.166206 C 16.753849 3.280094 13.798294 3.902317 12.009405 6.002317 Z M 12.009405 6.002317 " stroke="#ffffff" stroke-width="2" stroke-opacity="1" stroke-miterlimit="4"/></g><g fill="#000000" fill-opacity="1"><g transform="translate(98.471967, 200.93565)"><g><path d="M 1.71875 -23.5625 L 9.03125 -23.5625 C 11.238281 -23.5625 13 -23.085938 14.3125 -22.140625 C 15.625 -21.203125 16.28125 -19.675781 16.28125 -17.5625 C 16.28125 -15.207031 15.300781 -13.523438 13.34375 -12.515625 C 16.6875 -11.921875 18.359375 -9.9375 18.359375 -6.5625 C 18.359375 -4.582031 17.671875 -2.992188 16.296875 -1.796875 C 14.929688 -0.597656 13.050781 0 10.65625 0 L 1.71875 0 Z M 7.078125 -14.34375 L 7.515625 -14.34375 C 8.710938 -14.34375 9.601562 -14.550781 10.1875 -14.96875 C 10.78125 -15.382812 11.078125 -16.066406 11.078125 -17.015625 C 11.078125 -18.617188 9.890625 -19.421875 7.515625 -19.421875 L 7.078125 -19.421875 Z M 7.078125 -4.140625 L 8.765625 -4.140625 C 11.390625 -4.140625 12.703125 -5.015625 12.703125 -6.765625 C 12.703125 -7.816406 12.375 -8.570312 11.71875 -9.03125 C 11.0625 -9.488281 10.078125 -9.71875 8.765625 -9.71875 L 7.078125 -9.71875 Z M 7.078125 -4.140625 "/></g></g></g><g fill="#000000" fill-opacity="1"><g transform="translate(117.498651, 200.93565)"><g><path d="M 15.1875 -23.5625 L 15.1875 -18.84375 L 7.078125 -18.84375 L 7.078125 -14.171875 L 14.859375 -14.171875 L 14.859375 -9.453125 L 7.078125 -9.453125 L 7.078125 -4.71875 L 15.1875 -4.71875 L 15.1875 0 L 1.71875 0 L 1.71875 -23.5625 Z M 15.1875 -23.5625 "/></g></g></g><g fill="#000000" fill-opacity="1"><g transform="translate(134.068436, 200.93565)"><g><path d="M 10.390625 -24 C 11.671875 -24 12.921875 -23.8125 14.140625 -23.4375 C 15.359375 -23.0625 16.265625 -22.691406 16.859375 -22.328125 L 17.703125 -21.765625 L 15.53125 -17.484375 C 15.363281 -17.597656 15.125 -17.742188 14.8125 -17.921875 C 14.507812 -18.097656 13.941406 -18.335938 13.109375 -18.640625 C 12.273438 -18.953125 11.492188 -19.109375 10.765625 -19.109375 C 9.867188 -19.109375 9.175781 -18.914062 8.6875 -18.53125 C 8.207031 -18.15625 7.96875 -17.644531 7.96875 -17 C 7.96875 -16.675781 8.082031 -16.375 8.3125 -16.09375 C 8.539062 -15.820312 8.929688 -15.523438 9.484375 -15.203125 C 10.035156 -14.890625 10.519531 -14.640625 10.9375 -14.453125 C 11.351562 -14.265625 12 -13.976562 12.875 -13.59375 C 14.40625 -12.945312 15.707031 -12.066406 16.78125 -10.953125 C 17.851562 -9.835938 18.390625 -8.578125 18.390625 -7.171875 C 18.390625 -5.816406 18.144531 -4.632812 17.65625 -3.625 C 17.175781 -2.613281 16.507812 -1.820312 15.65625 -1.25 C 14.8125 -0.6875 13.875 -0.269531 12.84375 0 C 11.820312 0.28125 10.710938 0.421875 9.515625 0.421875 C 8.484375 0.421875 7.472656 0.316406 6.484375 0.109375 C 5.492188 -0.0976562 4.664062 -0.359375 4 -0.671875 C 3.332031 -0.984375 2.734375 -1.289062 2.203125 -1.59375 C 1.671875 -1.90625 1.28125 -2.164062 1.03125 -2.375 L 0.65625 -2.6875 L 3.34375 -7.203125 C 3.570312 -7.003906 3.882812 -6.757812 4.28125 -6.46875 C 4.6875 -6.175781 5.394531 -5.78125 6.40625 -5.28125 C 7.425781 -4.789062 8.328125 -4.546875 9.109375 -4.546875 C 11.378906 -4.546875 12.515625 -5.316406 12.515625 -6.859375 C 12.515625 -7.179688 12.429688 -7.476562 12.265625 -7.75 C 12.109375 -8.03125 11.820312 -8.304688 11.40625 -8.578125 C 11 -8.859375 10.640625 -9.078125 10.328125 -9.234375 C 10.015625 -9.398438 9.5 -9.648438 8.78125 -9.984375 C 8.070312 -10.316406 7.546875 -10.566406 7.203125 -10.734375 C 5.773438 -11.441406 4.671875 -12.320312 3.890625 -13.375 C 3.109375 -14.4375 2.71875 -15.578125 2.71875 -16.796875 C 2.71875 -18.910156 3.492188 -20.640625 5.046875 -21.984375 C 6.609375 -23.328125 8.390625 -24 10.390625 -24 Z M 10.390625 -24 "/></g></g></g><g fill="#000000" fill-opacity="1"><g transform="translate(153.266529, 200.93565)"><g><path d="M 0.234375 -18.84375 L 0.234375 -23.5625 L 16.796875 -23.5625 L 16.796875 -18.84375 L 11.203125 -18.84375 L 11.203125 0 L 5.828125 0 L 5.828125 -18.84375 Z M 0.234375 -18.84375 "/></g></g></g><g fill="#000000" fill-opacity="1"><g transform="translate(170.293407, 200.93565)"><g/></g></g><g fill="#000000" fill-opacity="1"><g transform="translate(178.092629, 200.93565)"><g><path d="M 0.234375 -18.84375 L 0.234375 -23.5625 L 16.796875 -23.5625 L 16.796875 -18.84375 L 11.203125 -18.84375 L 11.203125 0 L 5.828125 0 L 5.828125 -18.84375 Z M 0.234375 -18.84375 "/></g></g></g><g fill="#000000" fill-opacity="1"><g transform="translate(195.119508, 200.93565)"><g><path d="M 7.078125 -23.5625 L 7.078125 0 L 1.71875 0 L 1.71875 -23.5625 Z M 7.078125 -23.5625 "/></g></g></g><g fill="#000000" fill-opacity="1"><g transform="translate(203.918632, 200.93565)"><g><path d="M 1.71875 -23.5625 L 10.3125 -23.5625 C 12.707031 -23.5625 14.644531 -22.941406 16.125 -21.703125 C 17.613281 -20.460938 18.359375 -18.660156 18.359375 -16.296875 C 18.359375 -13.941406 17.609375 -12.09375 16.109375 -10.75 C 14.609375 -9.40625 12.675781 -8.734375 10.3125 -8.734375 L 7.078125 -8.734375 L 7.078125 0 L 1.71875 0 Z M 7.078125 -13.03125 L 8.59375 -13.03125 C 9.789062 -13.03125 10.773438 -13.269531 11.546875 -13.75 C 12.316406 -14.238281 12.703125 -15.035156 12.703125 -16.140625 C 12.703125 -17.265625 12.316406 -18.066406 11.546875 -18.546875 C 10.773438 -19.035156 9.789062 -19.28125 8.59375 -19.28125 L 7.078125 -19.28125 Z M 7.078125 -13.03125 "/></g></g></g><g fill="#000000" fill-opacity="1"><g transform="translate(222.945317, 200.93565)"><g><path d="M 10.390625 -24 C 11.671875 -24 12.921875 -23.8125 14.140625 -23.4375 C 15.359375 -23.0625 16.265625 -22.691406 16.859375 -22.328125 L 17.703125 -21.765625 L 15.53125 -17.484375 C 15.363281 -17.597656 15.125 -17.742188 14.8125 -17.921875 C 14.507812 -18.097656 13.941406 -18.335938 13.109375 -18.640625 C 12.273438 -18.953125 11.492188 -19.109375 10.765625 -19.109375 C 9.867188 -19.109375 9.175781 -18.914062 8.6875 -18.53125 C 8.207031 -18.15625 7.96875 -17.644531 7.96875 -17 C 7.96875 -16.675781 8.082031 -16.375 8.3125 -16.09375 C 8.539062 -15.820312 8.929688 -15.523438 9.484375 -15.203125 C 10.035156 -14.890625 10.519531 -14.640625 10.9375 -14.453125 C 11.351562 -14.265625 12 -13.976562 12.875 -13.59375 C 14.40625 -12.945312 15.707031 -12.066406 16.78125 -10.953125 C 17.851562 -9.835938 18.390625 -8.578125 18.390625 -7.171875 C 18.390625 -5.816406 18.144531 -4.632812 17.65625 -3.625 C 17.175781 -2.613281 16.507812 -1.820312 15.65625 -1.25 C 14.8125 -0.6875 13.875 -0.269531 12.84375 0 C 11.820312 0.28125 10.710938 0.421875 9.515625 0.421875 C 8.484375 0.421875 7.472656 0.316406 6.484375 0.109375 C 5.492188 -0.0976562 4.664062 -0.359375 4 -0.671875 C 3.332031 -0.984375 2.734375 -1.289062 2.203125 -1.59375 C 1.671875 -1.90625 1.28125 -2.164062 1.03125 -2.375 L 0.65625 -2.6875 L 3.34375 -7.203125 C 3.570312 -7.003906 3.882812 -6.757812 4.28125 -6.46875 C 4.6875 -6.175781 5.394531 -5.78125 6.40625 -5.28125 C 7.425781 -4.789062 8.328125 -4.546875 9.109375 -4.546875 C 11.378906 -4.546875 12.515625 -5.316406 12.515625 -6.859375 C 12.515625 -7.179688 12.429688 -7.476562 12.265625 -7.75 C 12.109375 -8.03125 11.820312 -8.304688 11.40625 -8.578125 C 11 -8.859375 10.640625 -9.078125 10.328125 -9.234375 C 10.015625 -9.398438 9.5 -9.648438 8.78125 -9.984375 C 8.070312 -10.316406 7.546875 -10.566406 7.203125 -10.734375 C 5.773438 -11.441406 4.671875 -12.320312 3.890625 -13.375 C 3.109375 -14.4375 2.71875 -15.578125 2.71875 -16.796875 C 2.71875 -18.910156 3.492188 -20.640625 5.046875 -21.984375 C 6.609375 -23.328125 8.390625 -24 10.390625 -24 Z M 10.390625 -24 "/></g></g></g><g fill="#000000" fill-opacity="1"><g transform="translate(242.143409, 200.93565)"><g/></g></g><g fill="#000000" fill-opacity="1"><g transform="translate(249.942623, 200.93565)"><g><path d="M 15.34375 -23.5625 L 15.34375 -18.84375 L 7.078125 -18.84375 L 7.078125 -14.171875 L 14.703125 -14.171875 L 14.703125 -9.453125 L 7.078125 -9.453125 L 7.078125 0 L 1.71875 0 L 1.71875 -23.5625 Z M 15.34375 -23.5625 "/></g></g></g><g fill="#000000" fill-opacity="1"><g transform="translate(266.141015, 200.93565)"><g><path d="M 7.078125 -23.5625 L 7.078125 0 L 1.71875 0 L 1.71875 -23.5625 Z M 7.078125 -23.5625 "/></g></g></g><g fill="#000000" fill-opacity="1"><g transform="translate(274.940148, 200.93565)"><g><path d="M 0.234375 -18.84375 L 0.234375 -23.5625 L 16.796875 -23.5625 L 16.796875 -18.84375 L 11.203125 -18.84375 L 11.203125 0 L 5.828125 0 L 5.828125 -18.84375 Z M 0.234375 -18.84375 "/></g></g></g></svg>